<svg width="800" height="400" viewBox="0 0 800 400" xmlns="http://www.w3.org/2000/svg"><defs><pattern id="satori_pattern_id_1" x="0" y="0" width="0.125" height="0.25" patternUnits="objectBoundingBox"><radialGradient id="satori_radial_id_1"><stop offset="0" stop-color="lightgray"/><stop offset="0.02" stop-color="lightgray"/><stop offset="0" stop-color="transparent"/><stop offset="1" stop-color="transparent"/></radialGradient><mask id="satori_mask_id_1"><rect x="0" y="0" width="100" height="100" fill="#fff"/></mask><rect x="0" y="0" width="100" height="100" fill="transparent"/><circle cx="75" cy="75" width="100" height="100" r="106.06601717798213" fill="url(#satori_radial_id_1)" mask="url(#satori_mask_id_1)"/></pattern><pattern id="satori_pattern_id_0" x="0" y="0" width="0.125" height="0.25" patternUnits="objectBoundingBox"><radialGradient id="satori_radial_id_0"><stop offset="0" stop-color="lightgray"/><stop offset="0.02" stop-color="lightgray"/><stop offset="0" stop-color="transparent"/><stop offset="1" stop-color="transparent"/></radialGradient><mask id="satori_mask_id_0"><rect x="0" y="0" width="100" height="100" fill="#fff"/></mask><rect x="0" y="0" width="100" height="100" fill="transparent"/><circle cx="25" cy="25" width="100" height="100" r="106.06601717798213" fill="url(#satori_radial_id_0)" mask="url(#satori_mask_id_0)"/></pattern></defs><mask id="satori_om-id"><rect x="0" y="0" width="800" height="400" fill="#fff"/></mask><rect x="0" y="0" width="800" height="400" fill="white"/><rect x="0" y="0" width="800" height="400" fill="url(#satori_pattern_id_1)"/><rect x="0" y="0" width="800" height="400" fill="url(#satori_pattern_id_0)"/><mask id="satori_om-id-0"><rect x="195" y="138" width="410" height="154" fill="#fff"/></mask><mask id="satori_om-id-0-0"><rect x="265" y="138" width="270" height="97" fill="#fff"/></mask><path fill="black" d="M287.4 206.3L268.8 206.3L268.8 162.6L286.3 162.6Q291.1 162.6 294.3 164.1Q297.5 165.5 299.1 168.0Q300.8 170.5 300.8 173.8L300.8 173.8Q300.8 176.4 299.7 178.3Q298.7 180.2 296.9 181.5Q295.1 182.7 292.9 183.2L292.9 183.2L292.9 183.6Q295.4 183.7 297.5 185.0Q299.7 186.3 301.1 188.7Q302.5 191.0 302.5 194.2L302.5 194.2Q302.5 197.7 300.7 200.4Q299.0 203.1 295.7 204.7Q292.3 206.3 287.4 206.3L287.4 206.3ZM278.0 187.1L278.0 198.7L285.5 198.7Q289.4 198.7 291.2 197.2Q292.9 195.8 292.9 193.3L292.9 193.3Q292.9 191.5 292.1 190.1Q291.2 188.7 289.6 187.9Q288.0 187.1 285.8 187.1L285.8 187.1L278.0 187.1ZM278.0 170.1L278.0 180.9L284.9 180.9Q286.8 180.9 288.2 180.2Q289.7 179.5 290.6 178.3Q291.4 177.1 291.4 175.3L291.4 175.3Q291.4 173.0 289.8 171.5Q288.1 170.1 285.0 170.1L285.0 170.1L278.0 170.1ZM313.6 206.8L313.6 206.8Q311.5 206.8 310.0 205.3Q308.5 203.8 308.5 201.7L308.5 201.7Q308.5 199.6 310.0 198.1Q311.5 196.6 313.6 196.6L313.6 196.6Q315.6 196.6 317.2 198.1Q318.7 199.6 318.7 201.7L318.7 201.7Q318.7 203.1 318.0 204.3Q317.3 205.4 316.1 206.1Q315.0 206.8 313.6 206.8Z M369.7 206.3L340.2 206.3L340.2 162.6L369.6 162.6L369.6 170.2L349.4 170.2L349.4 180.6L368.1 180.6L368.1 188.2L349.4 188.2L349.4 198.7L369.7 198.7L369.7 206.3ZM382.1 206.8L382.1 206.8Q380.0 206.8 378.5 205.3Q377.0 203.8 377.0 201.7L377.0 201.7Q377.0 199.6 378.5 198.1Q380.0 196.6 382.1 196.6L382.1 196.6Q384.1 196.6 385.7 198.1Q387.2 199.6 387.2 201.7L387.2 201.7Q387.2 203.1 386.5 204.3Q385.8 205.4 384.6 206.1Q383.5 206.8 382.1 206.8Z M418.0 206.3L408.7 206.3L408.7 162.6L426.0 162.6Q430.9 162.6 434.4 164.4Q437.9 166.1 439.7 169.3Q441.6 172.6 441.6 176.9L441.6 176.9Q441.6 181.2 439.7 184.3Q437.8 187.5 434.3 189.1Q430.7 190.8 425.7 190.8L425.7 190.8L414.2 190.8L414.2 183.4L424.2 183.4Q426.9 183.4 428.6 182.7Q430.4 181.9 431.2 180.5Q432.1 179.0 432.1 176.9L432.1 176.9Q432.1 174.7 431.2 173.2Q430.4 171.7 428.6 170.9Q426.8 170.2 424.2 170.2L424.2 170.2L418.0 170.2L418.0 206.3ZM422.4 186.4L432.3 186.4L443.1 206.3L433.0 206.3L422.4 186.4ZM453.2 206.8L453.2 206.8Q451.1 206.8 449.6 205.3Q448.1 203.8 448.1 201.7L448.1 201.7Q448.1 199.6 449.6 198.1Q451.1 196.6 453.2 196.6L453.2 196.6Q455.3 196.6 456.8 198.1Q458.4 199.6 458.4 201.7L458.4 201.7Q458.4 203.1 457.6 204.3Q456.9 205.4 455.8 206.1Q454.6 206.8 453.2 206.8Z M491.6 170.2L478.2 170.2L478.2 162.6L514.1 162.6L514.1 170.2L500.7 170.2L500.7 206.3L491.6 206.3L491.6 170.2ZM523.1 206.8L523.1 206.8Q521.0 206.8 519.5 205.3Q518.0 203.8 518.0 201.7L518.0 201.7Q518.0 199.6 519.5 198.1Q521.0 196.6 523.1 196.6L523.1 196.6Q525.1 196.6 526.6 198.1Q528.2 199.6 528.2 201.7L528.2 201.7Q528.2 203.1 527.5 204.3Q526.8 205.4 525.6 206.1Q524.5 206.8 523.1 206.8Z "/><mask id="satori_om-id-0-1"><rect x="195" y="251" width="410" height="25" fill="#fff"/></mask><path fill="black" d="M199.4 258.8L195.8 258.8L195.8 257.6L204.5 257.6L204.5 258.8L200.8 258.8L200.8 269.2L199.4 269.2L199.4 258.8ZM207.8 264.0L207.8 264.0L207.8 269.2L206.5 269.2L206.5 257.6L207.8 257.6L207.8 261.8L208.0 261.8Q208.3 261.2 208.9 260.8Q209.5 260.4 210.5 260.4L210.5 260.4Q211.4 260.4 212.1 260.7Q212.8 261.1 213.1 261.8Q213.5 262.5 213.5 263.7L213.5 263.7L213.5 269.2L212.2 269.2L212.2 263.7Q212.2 262.7 211.6 262.1Q211.1 261.6 210.1 261.6L210.1 261.6Q209.5 261.6 209.0 261.8Q208.4 262.1 208.1 262.7Q207.8 263.2 207.8 264.0ZM217.3 269.2L216.0 269.2L216.0 260.5L217.3 260.5L217.3 269.2ZM216.6 259.0L216.6 259.0Q216.2 259.0 216.0 258.8Q215.7 258.5 215.7 258.1L215.7 258.1Q215.7 257.7 216.0 257.5Q216.2 257.2 216.6 257.2L216.6 257.2Q217.0 257.2 217.3 257.5Q217.6 257.7 217.6 258.1L217.6 258.1Q217.6 258.5 217.3 258.8Q217.0 259.0 216.6 259.0ZM225.9 262.4L225.9 262.4L224.7 262.8Q224.6 262.5 224.4 262.2Q224.2 261.9 223.8 261.7Q223.4 261.5 222.8 261.5L222.8 261.5Q222.0 261.5 221.5 261.9Q221.0 262.3 221.0 262.8L221.0 262.8Q221.0 263.3 221.3 263.6Q221.7 263.9 222.5 264.1L222.5 264.1L223.8 264.4Q224.9 264.7 225.5 265.3Q226.1 265.9 226.1 266.8L226.1 266.8Q226.1 267.5 225.7 268.1Q225.2 268.7 224.5 269.0Q223.7 269.4 222.7 269.4L222.7 269.4Q221.3 269.4 220.5 268.8Q219.6 268.2 219.4 267.1L219.4 267.1L220.6 266.8Q220.8 267.5 221.3 267.9Q221.8 268.2 222.7 268.2L222.7 268.2Q223.6 268.2 224.2 267.8Q224.7 267.4 224.7 266.8L224.7 266.8Q224.7 266.4 224.4 266.1Q224.1 265.8 223.4 265.6L223.4 265.6L222.0 265.3Q220.8 265.0 220.2 264.4Q219.6 263.8 219.6 262.9L219.6 262.9Q219.6 262.1 220.1 261.6Q220.5 261.0 221.2 260.7Q221.9 260.4 222.8 260.4L222.8 260.4Q224.1 260.4 224.9 260.9Q225.6 261.5 225.9 262.4Z M234.0 269.2L232.6 269.2L232.6 260.5L234.0 260.5L234.0 269.2ZM233.3 259.0L233.3 259.0Q232.9 259.0 232.6 258.8Q232.3 258.5 232.3 258.1L232.3 258.1Q232.3 257.7 232.6 257.5Q232.9 257.2 233.3 257.2L233.3 257.2Q233.7 257.2 234.0 257.5Q234.3 257.7 234.3 258.1L234.3 258.1Q234.3 258.5 234.0 258.8Q233.7 259.0 233.3 259.0ZM242.6 262.4L242.6 262.4L241.4 262.8Q241.3 262.5 241.1 262.2Q240.8 261.9 240.5 261.7Q240.1 261.5 239.5 261.5L239.5 261.5Q238.7 261.5 238.2 261.9Q237.6 262.3 237.6 262.8L237.6 262.8Q237.6 263.3 238.0 263.6Q238.4 263.9 239.1 264.1L239.1 264.1L240.4 264.4Q241.6 264.7 242.2 265.3Q242.7 265.9 242.7 266.8L242.7 266.8Q242.7 267.5 242.3 268.1Q241.9 268.7 241.1 269.0Q240.4 269.4 239.3 269.4L239.3 269.4Q238.0 269.4 237.1 268.8Q236.3 268.2 236.0 267.1L236.0 267.1L237.3 266.8Q237.5 267.5 238.0 267.9Q238.5 268.2 239.3 268.2L239.3 268.2Q240.3 268.2 240.8 267.8Q241.4 267.4 241.4 266.8L241.4 266.8Q241.4 266.4 241.0 266.1Q240.7 265.8 240.1 265.6L240.1 265.6L238.6 265.3Q237.4 265.0 236.9 264.4Q236.3 263.8 236.3 262.9L236.3 262.9Q236.3 262.1 236.7 261.6Q237.1 261.0 237.9 260.7Q238.6 260.4 239.5 260.4L239.5 260.4Q240.8 260.4 241.5 260.9Q242.3 261.5 242.6 262.4Z M251.8 269.4L251.8 269.4Q251.0 269.4 250.3 269.1Q249.7 268.8 249.3 268.2Q248.9 267.6 248.9 266.7L248.9 266.7Q248.9 266.0 249.2 265.5Q249.5 265.0 249.9 264.8Q250.4 264.5 251.0 264.4Q251.6 264.2 252.3 264.2L252.3 264.2Q253.0 264.1 253.5 264.0Q254.0 263.9 254.3 263.8Q254.5 263.7 254.5 263.4L254.5 263.4L254.5 263.3Q254.5 262.5 254.0 262.0Q253.6 261.5 252.7 261.5L252.7 261.5Q251.7 261.5 251.2 262.0Q250.6 262.4 250.4 262.9L250.4 262.9L249.1 262.4Q249.5 261.6 250.0 261.2Q250.6 260.7 251.3 260.5Q252.0 260.4 252.6 260.4L252.6 260.4Q253.0 260.4 253.6 260.5Q254.1 260.6 254.6 260.9Q255.2 261.2 255.5 261.8Q255.8 262.4 255.8 263.5L255.8 263.5L255.8 269.2L254.5 269.2L254.5 268.0L254.4 268.0Q254.3 268.3 254.0 268.6Q253.7 269.0 253.1 269.2Q252.6 269.4 251.8 269.4ZM252.0 268.2L252.0 268.2Q252.8 268.2 253.4 267.9Q253.9 267.6 254.2 267.1Q254.5 266.6 254.5 266.0L254.5 266.0L254.5 264.8Q254.4 264.9 254.1 265.0Q253.8 265.1 253.5 265.1Q253.1 265.2 252.7 265.2Q252.4 265.3 252.2 265.3L252.2 265.3Q251.7 265.4 251.2 265.5Q250.8 265.7 250.5 266.0Q250.2 266.3 250.2 266.8L250.2 266.8Q250.2 267.5 250.7 267.8Q251.2 268.2 252.0 268.2Z M269.0 262.4L269.0 262.4L267.8 262.8Q267.7 262.5 267.4 262.2Q267.2 261.9 266.8 261.7Q266.5 261.5 265.9 261.5L265.9 261.5Q265.1 261.5 264.6 261.9Q264.0 262.3 264.0 262.8L264.0 262.8Q264.0 263.3 264.4 263.6Q264.8 263.9 265.5 264.1L265.5 264.1L266.8 264.4Q268.0 264.7 268.6 265.3Q269.1 265.9 269.1 266.8L269.1 266.8Q269.1 267.5 268.7 268.1Q268.3 268.7 267.5 269.0Q266.7 269.4 265.7 269.4L265.7 269.4Q264.4 269.4 263.5 268.8Q262.6 268.2 262.4 267.1L262.4 267.1L263.7 266.8Q263.9 267.5 264.4 267.9Q264.9 268.2 265.7 268.2L265.7 268.2Q266.6 268.2 267.2 267.8Q267.8 267.4 267.8 266.8L267.8 266.8Q267.8 266.4 267.4 266.1Q267.1 265.8 266.5 265.6L266.5 265.6L265 265.3Q263.8 265.0 263.2 264.4Q262.7 263.8 262.7 262.9L262.7 262.9Q262.7 262.1 263.1 261.6Q263.5 261.0 264.2 260.7Q265.0 260.4 265.9 260.4L265.9 260.4Q267.2 260.4 267.9 260.9Q268.7 261.5 269.0 262.4ZM272.5 269.2L271.2 269.2L271.2 260.5L272.5 260.5L272.5 269.2ZM271.8 259.0L271.8 259.0Q271.4 259.0 271.2 258.8Q270.9 258.5 270.9 258.1L270.9 258.1Q270.9 257.7 271.2 257.5Q271.4 257.2 271.8 257.2L271.8 257.2Q272.2 257.2 272.5 257.5Q272.8 257.7 272.8 258.1L272.8 258.1Q272.8 258.5 272.5 258.8Q272.2 259.0 271.8 259.0ZM276.3 269.2L275.0 269.2L275.0 260.5L276.3 260.5L276.3 261.8L276.4 261.8Q276.6 261.1 277.2 260.8Q277.9 260.4 278.7 260.4L278.7 260.4Q279.6 260.4 280.1 260.8Q280.7 261.1 281.0 261.8L281.0 261.8L281.1 261.8Q281.5 261.2 282.1 260.8Q282.8 260.4 283.8 260.4L283.8 260.4Q284.9 260.4 285.7 261.1Q286.4 261.8 286.4 263.4L286.4 263.4L286.4 269.2L285.1 269.2L285.1 263.4Q285.1 262.4 284.5 262.0Q284.0 261.6 283.3 261.6L283.3 261.6Q282.4 261.6 281.9 262.1Q281.4 262.7 281.4 263.5L281.4 263.5L281.4 269.2L280 269.2L280 263.2Q280 262.5 279.5 262.0Q279.0 261.6 278.3 261.6L278.3 261.6Q277.8 261.6 277.3 261.8Q276.8 262.1 276.6 262.6Q276.3 263.1 276.3 263.7L276.3 263.7L276.3 269.2ZM290.2 272.5L288.9 272.5L288.9 260.5L290.2 260.5L290.2 261.9L290.3 261.9Q290.5 261.6 290.7 261.3Q291.0 260.9 291.5 260.6Q292.0 260.4 292.8 260.4L292.8 260.4Q293.9 260.4 294.8 260.9Q295.6 261.5 296.1 262.5Q296.6 263.5 296.6 264.9L296.6 264.9Q296.6 266.2 296.1 267.3Q295.6 268.3 294.8 268.8Q294.0 269.4 292.9 269.4L292.9 269.4Q292.0 269.4 291.5 269.1Q291.0 268.8 290.7 268.5Q290.5 268.1 290.3 267.9L290.3 267.9L290.2 267.9L290.2 272.5ZM290.2 264.8L290.2 264.8Q290.2 265.8 290.5 266.6Q290.8 267.3 291.3 267.8Q291.9 268.2 292.7 268.2L292.7 268.2Q293.5 268.2 294.1 267.7Q294.7 267.3 294.9 266.5Q295.2 265.8 295.2 264.8L295.2 264.8Q295.2 263.9 294.9 263.2Q294.7 262.4 294.1 262.0Q293.5 261.6 292.7 261.6L292.7 261.6Q291.9 261.6 291.3 262.0Q290.8 262.4 290.5 263.1Q290.2 263.9 290.2 264.8ZM298.6 257.6L300.0 257.6L300.0 269.2L298.6 269.2L298.6 257.6ZM306.1 269.4L306.1 269.4Q304.8 269.4 303.9 268.8Q303.0 268.3 302.5 267.3Q302.0 266.2 302.0 264.9L302.0 264.9Q302.0 263.6 302.5 262.5Q303.0 261.5 303.9 260.9Q304.8 260.4 305.9 260.4L305.9 260.4Q306.6 260.4 307.3 260.6Q307.9 260.8 308.5 261.3Q309.0 261.8 309.4 262.7Q309.7 263.5 309.7 264.7L309.7 264.7L309.7 265.3L303.0 265.3L303.0 264.1L308.3 264.1Q308.3 263.4 308.0 262.8Q307.7 262.2 307.2 261.9Q306.7 261.6 305.9 261.6L305.9 261.6Q305.1 261.6 304.5 262.0Q304.0 262.4 303.7 263.0Q303.3 263.6 303.3 264.3L303.3 264.3L303.3 265.1Q303.3 266.1 303.7 266.8Q304.0 267.5 304.6 267.8Q305.3 268.2 306.1 268.2L306.1 268.2Q306.6 268.2 307.0 268.0Q307.5 267.9 307.8 267.6Q308.1 267.3 308.3 266.8L308.3 266.8L309.5 267.2Q309.3 267.8 308.9 268.3Q308.4 268.8 307.7 269.1Q307.0 269.4 306.1 269.4Z M317.6 269.2L316.2 269.2L316.2 260.5L317.6 260.5L317.6 269.2ZM316.9 259.0L316.9 259.0Q316.5 259.0 316.2 258.8Q316.0 258.5 316.0 258.1L316.0 258.1Q316.0 257.7 316.2 257.5Q316.5 257.2 316.9 257.2L316.9 257.2Q317.3 257.2 317.6 257.5Q317.9 257.7 317.9 258.1L317.9 258.1Q317.9 258.5 317.6 258.8Q317.3 259.0 316.9 259.0ZM321.4 269.2L320.0 269.2L320.0 260.5L321.3 260.5L321.3 261.8L321.4 261.8Q321.7 261.1 322.3 260.8Q322.9 260.4 323.8 260.4L323.8 260.4Q324.6 260.4 325.2 260.8Q325.8 261.1 326.1 261.8L326.1 261.8L326.2 261.8Q326.5 261.2 327.2 260.8Q327.9 260.4 328.8 260.4L328.8 260.4Q330.0 260.4 330.7 261.1Q331.5 261.8 331.5 263.4L331.5 263.4L331.5 269.2L330.1 269.2L330.1 263.4Q330.1 262.4 329.6 262.0Q329.1 261.6 328.4 261.6L328.4 261.6Q327.4 261.6 326.9 262.1Q326.4 262.7 326.4 263.5L326.4 263.5L326.4 269.2L325.1 269.2L325.1 263.2Q325.1 262.5 324.6 262.0Q324.1 261.6 323.3 261.6L323.3 261.6Q322.8 261.6 322.4 261.8Q321.9 262.1 321.6 262.6Q321.4 263.1 321.4 263.7L321.4 263.7L321.4 269.2ZM335.3 272.5L333.9 272.5L333.9 260.5L335.2 260.5L335.2 261.9L335.4 261.9Q335.5 261.6 335.8 261.3Q336.1 260.9 336.6 260.6Q337.1 260.4 337.9 260.4L337.9 260.4Q339.0 260.4 339.9 260.9Q340.7 261.5 341.2 262.5Q341.6 263.5 341.6 264.9L341.6 264.9Q341.6 266.2 341.2 267.3Q340.7 268.3 339.9 268.8Q339.0 269.4 337.9 269.4L337.9 269.4Q337.1 269.4 336.6 269.1Q336.1 268.8 335.8 268.5Q335.5 268.1 335.4 267.9L335.4 267.9L335.3 267.9L335.3 272.5ZM335.3 264.8L335.3 264.8Q335.3 265.8 335.5 266.6Q335.8 267.3 336.4 267.8Q336.9 268.2 337.8 268.2L337.8 268.2Q338.6 268.2 339.2 267.7Q339.7 267.3 340.0 266.5Q340.3 265.8 340.3 264.8L340.3 264.8Q340.3 263.9 340.0 263.2Q339.7 262.4 339.2 262.0Q338.6 261.6 337.8 261.6L337.8 261.6Q336.9 261.6 336.4 262.0Q335.8 262.4 335.5 263.1Q335.3 263.9 335.3 264.8ZM343.7 257.6L345.0 257.6L345.0 269.2L343.7 269.2L343.7 257.6ZM351.1 269.4L351.1 269.4Q349.9 269.4 349.0 268.8Q348.1 268.3 347.6 267.3Q347.1 266.2 347.1 264.9L347.1 264.9Q347.1 263.6 347.6 262.5Q348.1 261.5 348.9 260.9Q349.8 260.4 351.0 260.4L351.0 260.4Q351.7 260.4 352.3 260.6Q353.0 260.8 353.6 261.3Q354.1 261.8 354.4 262.7Q354.8 263.5 354.8 264.7L354.8 264.7L354.8 265.3L348.0 265.3L348.0 264.1L353.4 264.1Q353.4 263.4 353.1 262.8Q352.8 262.2 352.3 261.9Q351.7 261.6 351.0 261.6L351.0 261.6Q350.2 261.6 349.6 262.0Q349.0 262.4 348.7 263.0Q348.4 263.6 348.4 264.3L348.4 264.3L348.4 265.1Q348.4 266.1 348.8 266.8Q349.1 267.5 349.7 267.8Q350.3 268.2 351.1 268.2L351.1 268.2Q351.7 268.2 352.1 268.0Q352.5 267.9 352.8 267.6Q353.1 267.3 353.3 266.8L353.3 266.8L354.6 267.2Q354.4 267.8 353.9 268.3Q353.4 268.8 352.7 269.1Q352.0 269.4 351.1 269.4ZM358.1 269.2L356.8 269.2L356.8 260.5L358.1 260.5L358.1 261.8L358.2 261.8Q358.5 261.1 359.1 260.8Q359.7 260.4 360.5 260.4L360.5 260.4Q361.4 260.4 362.0 260.8Q362.6 261.1 362.9 261.8L362.9 261.8L363.0 261.8Q363.3 261.2 364.0 260.8Q364.7 260.4 365.6 260.4L365.6 260.4Q366.8 260.4 367.5 261.1Q368.3 261.8 368.3 263.4L368.3 263.4L368.3 269.2L366.9 269.2L366.9 263.4Q366.9 262.4 366.4 262.0Q365.9 261.6 365.1 261.6L365.1 261.6Q364.2 261.6 363.7 262.1Q363.2 262.7 363.2 263.5L363.2 263.5L363.2 269.2L361.8 269.2L361.8 263.2Q361.8 262.5 361.4 262.0Q360.9 261.6 360.1 261.6L360.1 261.6Q359.6 261.6 359.1 261.8Q358.7 262.1 358.4 262.6Q358.1 263.1 358.1 263.7L358.1 263.7L358.1 269.2ZM374.4 269.4L374.4 269.4Q373.1 269.4 372.2 268.8Q371.3 268.3 370.8 267.3Q370.3 266.2 370.3 264.9L370.3 264.9Q370.3 263.6 370.8 262.5Q371.3 261.5 372.2 260.9Q373.0 260.4 374.2 260.4L374.2 260.4Q374.9 260.4 375.6 260.6Q376.2 260.8 376.8 261.3Q377.3 261.8 377.7 262.7Q378.0 263.5 378.0 264.7L378.0 264.7L378.0 265.3L371.3 265.3L371.3 264.1L376.6 264.1Q376.6 263.4 376.3 262.8Q376.0 262.2 375.5 261.9Q375.0 261.6 374.2 261.6L374.2 261.6Q373.4 261.6 372.8 262.0Q372.3 262.4 371.9 263.0Q371.6 263.6 371.6 264.3L371.6 264.3L371.6 265.1Q371.6 266.1 372.0 266.8Q372.3 267.5 372.9 267.8Q373.6 268.2 374.4 268.2L374.4 268.2Q374.9 268.2 375.3 268.0Q375.8 267.9 376.1 267.6Q376.4 267.3 376.5 266.8L376.5 266.8L377.8 267.2Q377.6 267.8 377.2 268.3Q376.7 268.8 376.0 269.1Q375.3 269.4 374.4 269.4ZM381.4 264.0L381.4 264.0L381.4 269.2L380.0 269.2L380.0 260.5L381.3 260.5L381.3 261.8L381.4 261.8Q381.7 261.2 382.4 260.8Q383.0 260.4 384.0 260.4L384.0 260.4Q384.9 260.4 385.5 260.7Q386.2 261.1 386.6 261.8Q386.9 262.5 386.9 263.7L386.9 263.7L386.9 269.2L385.6 269.2L385.6 263.7Q385.6 262.7 385.1 262.1Q384.5 261.6 383.6 261.6L383.6 261.6Q382.9 261.6 382.4 261.8Q381.9 262.1 381.7 262.7Q381.4 263.2 381.4 264.0ZM388.7 260.5L393.2 260.5L393.2 261.6L388.7 261.6L388.7 260.5ZM390.0 267.1L390.0 258.4L391.3 258.4L391.3 266.7Q391.3 267.3 391.5 267.6Q391.7 267.8 391.9 267.9Q392.2 268.0 392.5 268.0L392.5 268.0Q392.7 268.0 392.8 268.0Q393.0 268.0 393.1 268.0L393.1 268.0L393.3 269.2Q393.2 269.2 393.0 269.3Q392.7 269.3 392.3 269.3L392.3 269.3Q391.8 269.3 391.2 269.1Q390.7 268.8 390.3 268.3Q390.0 267.8 390.0 267.1L390.0 267.1ZM397.8 269.4L397.8 269.4Q396.9 269.4 396.3 269.1Q395.6 268.8 395.2 268.2Q394.8 267.6 394.8 266.7L394.8 266.7Q394.8 266.0 395.1 265.5Q395.4 265.0 395.9 264.8Q396.4 264.5 397.0 264.4Q397.6 264.2 398.2 264.2L398.2 264.2Q399.0 264.1 399.5 264.0Q400.0 263.9 400.2 263.8Q400.4 263.7 400.4 263.4L400.4 263.4L400.4 263.3Q400.4 262.5 400.0 262.0Q399.5 261.5 398.6 261.5L398.6 261.5Q397.6 261.5 397.1 262.0Q396.5 262.4 396.3 262.9L396.3 262.9L395.0 262.4Q395.4 261.6 396.0 261.2Q396.5 260.7 397.2 260.5Q397.9 260.4 398.5 260.4L398.5 260.4Q399.0 260.4 399.5 260.5Q400.1 260.6 400.6 260.9Q401.1 261.2 401.4 261.8Q401.8 262.4 401.8 263.5L401.8 263.5L401.8 269.2L400.4 269.2L400.4 268.0L400.4 268.0Q400.2 268.3 399.9 268.6Q399.6 269.0 399.1 269.2Q398.5 269.4 397.8 269.4ZM398.0 268.2L398.0 268.2Q398.8 268.2 399.3 267.9Q399.9 267.6 400.2 267.1Q400.4 266.6 400.4 266.0L400.4 266.0L400.4 264.8Q400.3 264.9 400.1 265.0Q399.8 265.1 399.4 265.1Q399.0 265.2 398.7 265.2Q398.3 265.3 398.1 265.3L398.1 265.3Q397.6 265.4 397.1 265.5Q396.7 265.7 396.4 266.0Q396.1 266.3 396.1 266.8L396.1 266.8Q396.1 267.5 396.7 267.8Q397.2 268.2 398.0 268.2ZM403.5 260.5L408.0 260.5L408.0 261.6L403.5 261.6L403.5 260.5ZM404.8 267.1L404.8 258.4L406.2 258.4L406.2 266.7Q406.2 267.3 406.3 267.6Q406.5 267.8 406.8 267.9Q407.0 268.0 407.3 268.0L407.3 268.0Q407.5 268.0 407.7 268.0Q407.8 268.0 407.9 268.0L407.9 268.0L408.2 269.2Q408.0 269.2 407.8 269.3Q407.6 269.3 407.2 269.3L407.2 269.3Q406.6 269.3 406.1 269.1Q405.5 268.8 405.2 268.3Q404.8 267.8 404.8 267.1L404.8 267.1ZM411.4 269.2L410.0 269.2L410.0 260.5L411.4 260.5L411.4 269.2ZM410.7 259.0L410.7 259.0Q410.3 259.0 410.1 258.8Q409.8 258.5 409.8 258.1L409.8 258.1Q409.8 257.7 410.1 257.5Q410.3 257.2 410.7 257.2L410.7 257.2Q411.1 257.2 411.4 257.5Q411.7 257.7 411.7 258.1L411.7 258.1Q411.7 258.5 411.4 258.8Q411.1 259.0 410.7 259.0ZM417.4 269.4L417.4 269.4Q416.2 269.4 415.3 268.8Q414.4 268.3 413.9 267.2Q413.4 266.2 413.4 264.9L413.4 264.9Q413.4 263.5 413.9 262.5Q414.4 261.5 415.3 260.9Q416.2 260.4 417.4 260.4L417.4 260.4Q418.6 260.4 419.5 260.9Q420.3 261.5 420.8 262.5Q421.3 263.5 421.3 264.9L421.3 264.9Q421.3 266.2 420.8 267.2Q420.3 268.3 419.5 268.8Q418.6 269.4 417.4 269.4ZM417.4 268.2L417.4 268.2Q418.3 268.2 418.9 267.7Q419.4 267.3 419.7 266.5Q420.0 265.8 420.0 264.9L420.0 264.9Q420.0 264.0 419.7 263.3Q419.4 262.5 418.9 262.0Q418.3 261.6 417.4 261.6L417.4 261.6Q416.5 261.6 415.9 262.0Q415.3 262.5 415.1 263.3Q414.8 264.0 414.8 264.9L414.8 264.9Q414.8 265.8 415.1 266.5Q415.3 267.3 415.9 267.7Q416.5 268.2 417.4 268.2ZM424.7 264.0L424.7 264.0L424.7 269.2L423.4 269.2L423.4 260.5L424.7 260.5L424.7 261.8L424.8 261.8Q425.1 261.2 425.7 260.8Q426.4 260.4 427.3 260.4L427.3 260.4Q428.2 260.4 428.9 260.7Q429.6 261.1 429.9 261.8Q430.3 262.5 430.3 263.7L430.3 263.7L430.3 269.2L429.0 269.2L429.0 263.7Q429.0 262.7 428.4 262.1Q427.9 261.6 427.0 261.6L427.0 261.6Q426.3 261.6 425.8 261.8Q425.3 262.1 425.0 262.7Q424.7 263.2 424.7 264.0Z M438.6 269.2L437.3 269.2L437.3 260.5L438.6 260.5L438.6 269.2ZM437.9 259.0L437.9 259.0Q437.5 259.0 437.3 258.8Q437.0 258.5 437.0 258.1L437.0 258.1Q437.0 257.7 437.3 257.5Q437.5 257.2 437.9 257.2L437.9 257.2Q438.3 257.2 438.6 257.5Q438.9 257.7 438.9 258.1L438.9 258.1Q438.9 258.5 438.6 258.8Q438.3 259.0 437.9 259.0ZM442.4 264.0L442.4 264.0L442.4 269.2L441.0 269.2L441.0 260.5L442.3 260.5L442.3 261.8L442.5 261.8Q442.8 261.2 443.4 260.8Q444.0 260.4 445 260.4L445 260.4Q445.9 260.4 446.6 260.7Q447.2 261.1 447.6 261.8Q448.0 262.5 448.0 263.7L448.0 263.7L448.0 269.2L446.6 269.2L446.6 263.7Q446.6 262.7 446.1 262.1Q445.5 261.6 444.6 261.6L444.6 261.6Q444.0 261.6 443.5 261.8Q443.0 262.1 442.7 262.7Q442.4 263.2 442.4 264.0Z M459.3 269.2L455.1 269.2L455.1 257.6L459.2 257.6Q460.4 257.6 461.2 258.0Q462.0 258.4 462.3 259.1Q462.7 259.8 462.7 260.7L462.7 260.7Q462.7 261.4 462.5 261.9Q462.2 262.4 461.8 262.7Q461.3 263.0 460.8 263.1L460.8 263.1L460.8 263.2Q461.4 263.2 461.9 263.6Q462.5 263.9 462.8 264.6Q463.2 265.2 463.2 266.1L463.2 266.1Q463.2 267.0 462.8 267.7Q462.4 268.4 461.5 268.8Q460.7 269.2 459.3 269.2L459.3 269.2ZM456.5 263.9L456.5 268.0L459.3 268.0Q460.7 268.0 461.3 267.4Q461.8 266.9 461.8 266.1L461.8 266.1Q461.8 265.5 461.5 265.0Q461.2 264.5 460.7 264.2Q460.1 263.9 459.4 263.9L459.4 263.9L456.5 263.9ZM456.5 258.8L456.5 262.7L459.1 262.7Q459.7 262.7 460.3 262.4Q460.8 262.2 461.1 261.7Q461.4 261.3 461.4 260.7L461.4 260.7Q461.4 259.9 460.9 259.4Q460.3 258.8 459.2 258.8L459.2 258.8L456.5 258.8ZM472.6 269.2L465.5 269.2L465.5 257.6L472.5 257.6L472.5 258.8L466.9 258.8L466.9 262.7L472.2 262.7L472.2 264.0L466.9 264.0L466.9 268.0L472.6 268.0L472.6 269.2ZM476.5 269.2L475.1 269.2L475.1 257.6L479.0 257.6Q480.4 257.6 481.2 258.0Q482.1 258.5 482.5 259.3Q483.0 260.1 483.0 261.1L483.0 261.1Q483.0 262.2 482.5 263.0Q482.1 263.8 481.2 264.2Q480.4 264.7 479.0 264.7L479.0 264.7L475.8 264.7L475.8 263.4L479.0 263.4Q479.9 263.4 480.5 263.1Q481.1 262.8 481.3 262.3Q481.6 261.8 481.6 261.1L481.6 261.1Q481.6 260.4 481.3 259.9Q481.0 259.4 480.5 259.1Q479.9 258.8 479.0 258.8L479.0 258.8L476.5 258.8L476.5 269.2ZM479.0 264.0L480.5 264.0L483.4 269.2L481.8 269.2L479.0 264.0ZM488.3 258.8L484.7 258.8L484.7 257.6L493.4 257.6L493.4 258.8L489.7 258.8L489.7 269.2L488.3 269.2L488.3 258.8Z M501.2 269.2L499.9 269.2L499.9 260.5L501.2 260.5L501.2 269.2ZM500.6 259.0L500.6 259.0Q500.2 259.0 499.9 258.8Q499.6 258.5 499.6 258.1L499.6 258.1Q499.6 257.7 499.9 257.5Q500.2 257.2 500.6 257.2L500.6 257.2Q501.0 257.2 501.2 257.5Q501.5 257.7 501.5 258.1L501.5 258.1Q501.5 258.5 501.2 258.8Q501.0 259.0 500.6 259.0ZM505.0 264.0L505.0 264.0L505.0 269.2L503.7 269.2L503.7 260.5L505.0 260.5L505.0 261.8L505.1 261.8Q505.4 261.2 506.0 260.8Q506.6 260.4 507.6 260.4L507.6 260.4Q508.5 260.4 509.2 260.7Q509.9 261.1 510.2 261.8Q510.6 262.5 510.6 263.7L510.6 263.7L510.6 269.2L509.3 269.2L509.3 263.7Q509.3 262.7 508.7 262.1Q508.2 261.6 507.3 261.6L507.3 261.6Q506.6 261.6 506.1 261.8Q505.6 262.1 505.3 262.7Q505.0 263.2 505.0 264.0Z M523.2 260.5L524.7 260.5L521.5 269.2L520.1 269.2L516.9 260.5L518.3 260.5L520.7 267.4L520.8 267.4L523.2 260.5ZM527.8 269.2L526.5 269.2L526.5 260.5L527.8 260.5L527.8 269.2ZM527.1 259.0L527.1 259.0Q526.7 259.0 526.5 258.8Q526.2 258.5 526.2 258.1L526.2 258.1Q526.2 257.7 526.5 257.5Q526.7 257.2 527.1 257.2L527.1 257.2Q527.5 257.2 527.8 257.5Q528.1 257.7 528.1 258.1L528.1 258.1Q528.1 258.5 527.8 258.8Q527.5 259.0 527.1 259.0ZM529.5 260.5L534.0 260.5L534.0 261.6L529.5 261.6L529.5 260.5ZM530.8 267.1L530.8 258.4L532.2 258.4L532.2 266.7Q532.2 267.3 532.3 267.6Q532.5 267.8 532.8 267.9Q533.0 268.0 533.3 268.0L533.3 268.0Q533.6 268.0 533.7 268.0Q533.8 268.0 533.9 268.0L533.9 268.0L534.2 269.2Q534.1 269.2 533.8 269.3Q533.6 269.3 533.2 269.3L533.2 269.3Q532.6 269.3 532.1 269.1Q531.6 268.8 531.2 268.3Q530.8 267.8 530.8 267.1L530.8 267.1ZM539.6 269.4L539.6 269.4Q538.4 269.4 537.5 268.8Q536.6 268.3 536.1 267.3Q535.6 266.2 535.6 264.9L535.6 264.9Q535.6 263.6 536.1 262.5Q536.6 261.5 537.4 260.9Q538.3 260.4 539.5 260.4L539.5 260.4Q540.2 260.4 540.8 260.6Q541.5 260.8 542.1 261.3Q542.6 261.8 542.9 262.7Q543.2 263.5 543.2 264.7L543.2 264.7L543.2 265.3L536.5 265.3L536.5 264.1L541.9 264.1Q541.9 263.4 541.6 262.8Q541.3 262.2 540.8 261.9Q540.2 261.6 539.5 261.6L539.5 261.6Q538.7 261.6 538.1 262.0Q537.5 262.4 537.2 263.0Q536.9 263.6 536.9 264.3L536.9 264.3L536.9 265.1Q536.9 266.1 537.3 266.8Q537.6 267.5 538.2 267.8Q538.8 268.2 539.6 268.2L539.6 268.2Q540.2 268.2 540.6 268.0Q541.0 267.9 541.3 267.6Q541.6 267.3 541.8 266.8L541.8 266.8L543.1 267.2Q542.9 267.8 542.4 268.3Q541.9 268.8 541.2 269.1Q540.5 269.4 539.6 269.4Z M551.5 269.2L550.1 269.2L550.1 257.6L554 257.6Q555.4 257.6 556.2 258.0Q557.1 258.5 557.5 259.3Q558.0 260.1 558.0 261.1L558.0 261.1Q558.0 262.2 557.5 263.0Q557.1 263.8 556.2 264.2Q555.4 264.7 554.0 264.7L554.0 264.7L550.8 264.7L550.8 263.4L554.0 263.4Q554.9 263.4 555.5 263.1Q556.1 262.8 556.3 262.3Q556.6 261.8 556.6 261.1L556.6 261.1Q556.6 260.4 556.3 259.9Q556.0 259.4 555.5 259.1Q554.9 258.8 554.0 258.8L554.0 258.8L551.5 258.8L551.5 269.2ZM554.0 264.0L555.5 264.0L558.4 269.2L556.8 269.2L554.0 264.0ZM563.7 269.4L563.7 269.4Q562.4 269.4 561.5 268.8Q560.6 268.3 560.1 267.3Q559.6 266.2 559.6 264.9L559.6 264.9Q559.6 263.6 560.1 262.5Q560.6 261.5 561.5 260.9Q562.4 260.4 563.5 260.4L563.5 260.4Q564.2 260.4 564.9 260.6Q565.6 260.8 566.1 261.3Q566.6 261.8 567.0 262.7Q567.3 263.5 567.3 264.7L567.3 264.7L567.3 265.3L560.6 265.3L560.6 264.1L565.9 264.1Q565.9 263.4 565.6 262.8Q565.3 262.2 564.8 261.9Q564.3 261.6 563.5 261.6L563.5 261.6Q562.7 261.6 562.2 262.0Q561.6 262.4 561.3 263.0Q561.0 263.6 561.0 264.3L561.0 264.3L561.0 265.1Q561.0 266.1 561.3 266.8Q561.6 267.5 562.3 267.8Q562.9 268.2 563.7 268.2L563.7 268.2Q564.2 268.2 564.6 268.0Q565.1 267.9 565.4 267.6Q565.7 267.3 565.9 266.8L565.9 266.8L567.2 267.2Q567.0 267.8 566.5 268.3Q566.0 268.8 565.3 269.1Q564.6 269.4 563.7 269.4ZM571.9 269.4L571.9 269.4Q571.1 269.4 570.4 269.1Q569.7 268.8 569.3 268.2Q568.9 267.6 568.9 266.7L568.9 266.7Q568.9 266.0 569.2 265.5Q569.5 265.0 570.0 264.8Q570.5 264.5 571.1 264.4Q571.7 264.2 572.3 264.2L572.3 264.2Q573.1 264.1 573.6 264.0Q574.1 263.9 574.3 263.8Q574.6 263.7 574.6 263.4L574.6 263.4L574.6 263.3Q574.6 262.5 574.1 262.0Q573.7 261.5 572.7 261.5L572.7 261.5Q571.8 261.5 571.2 262.0Q570.7 262.4 570.5 262.9L570.5 262.9L569.2 262.4Q569.5 261.6 570.1 261.2Q570.7 260.7 571.3 260.5Q572.0 260.4 572.7 260.4L572.7 260.4Q573.1 260.4 573.7 260.5Q574.2 260.6 574.7 260.9Q575.2 261.2 575.6 261.8Q575.9 262.4 575.9 263.5L575.9 263.5L575.9 269.2L574.6 269.2L574.6 268.0L574.5 268.0Q574.4 268.3 574.0 268.6Q573.7 269.0 573.2 269.2Q572.7 269.4 571.9 269.4ZM572.1 268.2L572.1 268.2Q572.9 268.2 573.5 267.9Q574.0 267.6 574.3 267.1Q574.6 266.6 574.6 266.0L574.6 266.0L574.6 264.8Q574.5 264.9 574.2 265.0Q573.9 265.1 573.5 265.1Q573.2 265.2 572.8 265.2Q572.5 265.3 572.3 265.3L572.3 265.3Q571.7 265.4 571.3 265.5Q570.8 265.7 570.5 266.0Q570.3 266.3 570.3 266.8L570.3 266.8Q570.3 267.5 570.8 267.8Q571.3 268.2 572.1 268.2ZM581.9 269.4L581.9 269.4Q580.7 269.4 579.8 268.8Q578.9 268.2 578.4 267.2Q578.0 266.2 578.0 264.9L578.0 264.9Q578.0 263.6 578.4 262.5Q578.9 261.5 579.8 260.9Q580.7 260.4 581.9 260.4L581.9 260.4Q582.8 260.4 583.5 260.7Q584.3 261.0 584.8 261.7Q585.2 262.3 585.3 263.1L585.3 263.1L584 263.1Q583.8 262.5 583.3 262.0Q582.8 261.6 581.9 261.6L581.9 261.6Q581.1 261.6 580.5 262.0Q579.9 262.4 579.6 263.1Q579.3 263.9 579.3 264.8L579.3 264.8Q579.3 265.9 579.6 266.6Q579.9 267.4 580.5 267.8Q581.1 268.2 581.9 268.2L581.9 268.2Q582.4 268.2 582.9 268.0Q583.3 267.8 583.6 267.5Q583.9 267.1 584 266.7L584 266.7L585.3 266.7Q585.2 267.4 584.8 268.0Q584.3 268.7 583.6 269.0Q582.9 269.4 581.9 269.4ZM586.6 260.5L591.1 260.5L591.1 261.6L586.6 261.6L586.6 260.5ZM587.9 267.1L587.9 258.4L589.2 258.4L589.2 266.7Q589.2 267.3 589.4 267.6Q589.6 267.8 589.8 267.9Q590.1 268.0 590.4 268.0L590.4 268.0Q590.6 268.0 590.7 268.0Q590.9 268.0 591.0 268.0L591.0 268.0L591.2 269.2Q591.1 269.2 590.9 269.3Q590.6 269.3 590.2 269.3L590.2 269.3Q589.7 269.3 589.1 269.1Q588.6 268.8 588.2 268.3Q587.9 267.8 587.9 267.1L587.9 267.1ZM593.1 269.8L593.1 260.5L594.5 260.5L594.5 269.8Q594.5 270.6 594.2 271.2Q593.9 271.8 593.3 272.2Q592.8 272.5 592.0 272.5L592.0 272.5Q591.9 272.5 591.8 272.5Q591.8 272.5 591.7 272.5L591.7 272.5L591.7 271.2Q591.8 271.2 591.8 271.2Q591.9 271.2 591.9 271.2L591.9 271.2Q592.5 271.2 592.8 270.9Q593.1 270.5 593.1 269.8L593.1 269.8ZM593.8 259.0L593.8 259.0Q593.4 259.0 593.1 258.8Q592.8 258.5 592.8 258.1L592.8 258.1Q592.8 257.7 593.1 257.5Q593.4 257.2 593.8 257.2L593.8 257.2Q594.2 257.2 594.4 257.5Q594.7 257.7 594.7 258.1L594.7 258.1Q594.7 258.5 594.4 258.8Q594.2 259.0 593.8 259.0ZM603.1 262.4L603.1 262.4L601.9 262.8Q601.8 262.5 601.6 262.2Q601.3 261.9 601.0 261.7Q600.6 261.5 600 261.5L600 261.5Q599.2 261.5 598.7 261.9Q598.1 262.3 598.1 262.8L598.1 262.8Q598.1 263.3 598.5 263.6Q598.9 263.9 599.6 264.1L599.6 264.1L600.9 264.4Q602.1 264.7 602.7 265.3Q603.3 265.9 603.3 266.8L603.3 266.8Q603.3 267.5 602.8 268.1Q602.4 268.7 601.6 269.0Q600.9 269.4 599.8 269.4L599.8 269.4Q598.5 269.4 597.6 268.8Q596.8 268.2 596.5 267.1L596.5 267.1L597.8 266.8Q598.0 267.5 598.5 267.9Q599.0 268.2 599.8 268.2L599.8 268.2Q600.8 268.2 601.3 267.8Q601.9 267.4 601.9 266.8L601.9 266.8Q601.9 266.4 601.5 266.1Q601.2 265.8 600.6 265.6L600.6 265.6L599.1 265.3Q597.9 265.0 597.4 264.4Q596.8 263.8 596.8 262.9L596.8 262.9Q596.8 262.1 597.2 261.6Q597.6 261.0 598.4 260.7Q599.1 260.4 600 260.4L600 260.4Q601.3 260.4 602.0 260.9Q602.8 261.5 603.1 262.4Z "/></svg>